<svg width="16" height="16" viewBox="0 0 16 16" fill="none" xmlns="http://www.w3.org/2000/svg">
    <path fill-rule="evenodd" clip-rule="evenodd"
        d="M16 8C16 12.4183 12.4183 16 8 16C3.58173 16 0 12.4183 0 8C0 3.58173 3.58173 0 8 0C12.4183 0 16 3.58173 16 8ZM8.76733 5.54558C7.39297 6.13922 3.43018 7.82513 3.43018 7.82513C2.49103 8.20506 3.04075 8.56124 3.04075 8.56124C3.04075 8.56124 3.84247 8.8462 4.52968 9.05988C5.21686 9.27359 5.58337 9.03615 5.58337 9.03615C5.58337 9.03615 7.18681 7.94386 8.81315 6.78033C9.95846 5.973 9.6836 6.63786 9.40871 6.92282C8.81315 7.5402 7.82819 8.51375 7.00354 9.29735C6.63706 9.6298 6.8203 9.91473 6.98065 10.0572C7.44699 10.4662 8.54532 11.2102 9.04399 11.5479C9.18217 11.6415 9.27431 11.7039 9.2942 11.7194C9.40871 11.8144 10.0501 12.2418 10.4395 12.1468C10.8289 12.0518 10.8747 11.5057 10.8747 11.5057C10.8747 11.5057 11.1725 9.55855 11.4474 7.77764C11.4983 7.42797 11.5492 7.08563 11.5967 6.76641C11.7201 5.93673 11.8202 5.26325 11.8368 5.02318C11.9055 4.21585 11.0809 4.54826 11.0809 4.54826C11.0809 4.54826 9.2942 5.30814 8.76733 5.54558Z"
        fill="#272930"
        style="fill:#272930;fill:color(display-p3 0.1529 0.1608 0.1882);fill-opacity:1;" />
</svg>
    